# xmcd
#
# Track frame offsets:
#	150
#	29482
#	43297
#	62245
#	79272
#	94515
#	109677
#	125325
#	143747
#	173395
#	197430
#	212172
#	226037
#
# Disc length: 3349 seconds
#
# Revision: 0
# Processed by: cddbd v1.4PL0 Copyright (c) Steve Scherf et al.
# Submitted via: dBpowerAMP V4.0
#
DISCID=a80d130d
DTITLE=Grant and Forsyth - The Very Best Country Songs
DYEAR=1999
DGENRE=Country
TTITLE0=Medley 
TTITLE1=Lady Bird
TTITLE2=The Night They Drove Old Dixy Down
TTITLE3=Medley
TTITLE4=Storybook Children
TTITLE5=Somewhere Between
TTITLE6=Always On My Mind
TTITLE7=An American Trilogy
TTITLE8=Medley
TTITLE9=Sweet Sixteen
TTITLE10=Let It Be Me
TTITLE11=Old Country Road
TTITLE12=Medley
EXTD=Album DNCD 99661\nDino Records 1999
EXTT0=
EXTT1=
EXTT2=
EXTT3=
EXTT4=
EXTT5=
EXTT6=
EXTT7=
EXTT8=
EXTT9=
EXTT10=
EXTT11=
EXTT12=
PLAYORDER=
